<?xml version="1.0" standalone="no"?><!DOCTYPE svg PUBLIC "-//W3C//DTD SVG 1.1//EN" "http://www.w3.org/Graphics/SVG/1.1/DTD/svg11.dtd"><svg t="1578879916213" class="icon" viewBox="0 0 1024 1024" version="1.1" xmlns="http://www.w3.org/2000/svg" p-id="3430" width="128" height="128" xmlns:xlink="http://www.w3.org/1999/xlink"><defs><style type="text/css"></style></defs><path d="M981.333333 789.333333 42.666667 789.333333c-11.797333 0-21.333333-9.536-21.333333-21.333333L21.333333 170.666667c0-11.776 9.536-21.333333 21.333333-21.333333l938.666667 0c11.797333 0 21.333333 9.557333 21.333333 21.333333l0 597.333333C1002.666667 779.797333 993.130667 789.333333 981.333333 789.333333zM960 192 64 192l0 554.666667 896 0L960 192zM448 341.333333c4.565333 0 8.533333 1.749333 12.010667 4.181333l165.781333 103.936C634.026667 452.373333 640 460.074667 640 469.333333c0 6.933333-3.52 12.821333-8.64 16.704l-170.112 106.261333C457.578667 595.285333 453.077333 597.333333 448 597.333333c-11.797333 0-21.333333-9.536-21.333333-21.333333L426.666667 362.666667C426.666667 350.890667 436.202667 341.333333 448 341.333333zM320 832l384 0c11.797333 0 21.333333 9.536 21.333333 21.333333s-9.536 21.333333-21.333333 21.333333L320 874.666667c-11.797333 0-21.333333-9.536-21.333333-21.333333S308.202667 832 320 832z" p-id="3431" fill="#cdcdcd"></path></svg>