<?xml version="1.0" standalone="no"?><!DOCTYPE svg PUBLIC "-//W3C//DTD SVG 1.1//EN" "http://www.w3.org/Graphics/SVG/1.1/DTD/svg11.dtd"><svg t="1578979672391" class="icon" viewBox="0 0 1024 1024" version="1.1" xmlns="http://www.w3.org/2000/svg" p-id="4160" xmlns:xlink="http://www.w3.org/1999/xlink" width="128" height="128"><defs><style type="text/css"></style></defs><path d="M858.405521 65.290005 258.658038 65.290005c-62.71946 0-113.7456 51.02614-113.7456 113.7456l0 674.200172c0 58.157561 47.314609 105.473193 105.473193 105.473193l608.019891 0c11.422144 0 20.681018-9.259898 20.681018-20.681018L879.086539 85.971024C879.086539 74.549903 869.827665 65.290005 858.405521 65.290005zM734.320435 106.652042l0 340.306616-48.63365-36.322254c-3.669576-2.740414-8.022721-4.110621-12.374842-4.110621s-8.705266 1.370207-12.374842 4.110621l-48.63365 36.322254L612.30345 106.652042 734.320435 106.652042zM258.658038 106.652042l312.282353 0 0 381.564275c0 7.826246 4.41659 14.981203 11.413957 18.489096 6.996344 3.507894 15.372106 2.764973 21.641903-1.918699l69.314669-51.767014 69.314669 51.767014c3.64297 2.719948 7.997138 4.110621 12.376888 4.110621 3.15997 0 6.334265-0.723477 9.265014-2.191922 6.997368-3.50687 11.413957-10.662851 11.413957-18.489096L775.681448 106.652042l62.043055 0L837.724503 747.763608 250.385631 747.763608c-24.102954 0-46.329165 8.145517-64.111157 21.802562L186.274474 179.035606C186.274474 139.122571 218.746026 106.652042 258.658038 106.652042zM250.385631 917.346935c-35.350113 0-64.111157-28.758997-64.111157-64.111157s28.760021-64.111157 64.111157-64.111157l587.339896 0 0 43.75555L259.960707 832.880171c-11.422144 0-20.681018 9.259898-20.681018 20.681018s9.258874 20.681018 20.681018 20.681018l577.764819 0 0 43.104727L250.385631 917.346935z" p-id="4161" fill="#8a8a8a"></path></svg>